<?xml version="1.0" encoding="UTF-8" standalone="no"?>
<svg
   width="986.13599"
   height="150"
   version="1.1"
   viewBox="0 0 986.13599 150"
   id="svg3"
   sodipodi:docname="National_Health_Service_(England)_logo.svg"
   inkscape:version="1.3.2 (091e20e, 2023-11-25)"
   inkscape:export-filename="National_Health_Service_(England)_logo.png"
   inkscape:export-xdpi="96"
   inkscape:export-ydpi="96"
   xmlns:inkscape="http://www.inkscape.org/namespaces/inkscape"
   xmlns:sodipodi="http://sodipodi.sourceforge.net/DTD/sodipodi-0.dtd"
   xmlns="http://www.w3.org/2000/svg"
   xmlns:svg="http://www.w3.org/2000/svg"
   xmlns:rdf="http://www.w3.org/1999/02/22-rdf-syntax-ns#"
   xmlns:cc="http://creativecommons.org/ns#"
   xmlns:dc="http://purl.org/dc/elements/1.1/">
  <defs
     id="defs3" />
  <sodipodi:namedview
     id="namedview3"
     pagecolor="#ffffff"
     bordercolor="#000000"
     borderopacity="0.25"
     inkscape:showpageshadow="2"
     inkscape:pageopacity="0.0"
     inkscape:pagecheckerboard="0"
     inkscape:deskcolor="#d1d1d1"
     inkscape:zoom="0.83579755"
     inkscape:cx="548.57782"
     inkscape:cy="-30.509781"
     inkscape:window-width="1352"
     inkscape:window-height="844"
     inkscape:window-x="0"
     inkscape:window-y="34"
     inkscape:window-maximized="0"
     inkscape:current-layer="svg3" />
  <metadata
     id="metadata1">
    <rdf:RDF>
      <cc:Work
         rdf:about="">
        <dc:format>image/svg+xml</dc:format>
        <dc:type
           rdf:resource="http://purl.org/dc/dcmitype/StillImage" />
      </cc:Work>
    </rdf:RDF>
  </metadata>
  <rect
     width="370.60999"
     height="150"
     fill="#005eb8"
     stroke-width="3.75"
     id="rect1"
     x="-4"
     y="0" />
  <g
     transform="matrix(3.75,0,0,3.75,-1.335144e-6,-9.5367432e-7)"
     fill="#ffffff"
     id="g3">
    <path
       d="M 9.66,3.86 H 20.41 L 27,26.19 h 0.1 L 31.62,3.86 h 8.12 l -6.83,32.2 H 22.21 L 15.47,13.78 H 15.38 L 10.91,36.06 H 2.79 Z"
       id="path1" />
    <path
       d="m 42.91,3.86 h 8.63 L 49,16.18 H 59.2 L 61.74,3.86 h 8.63 l -6.69,32.2 H 55 L 57.86,22.27 H 47.71 l -2.86,13.79 h -8.62 z"
       id="path2" />
    <path
       d="M 93.06,11.15 A 16.18,16.18 0 0 0 86,9.67 c -3.41,0 -6.18,0.51 -6.18,3.09 0,4.57 12.5,2.86 12.5,12.64 0,8.9 -8.26,11.21 -15.73,11.21 a 36,36 0 0 1 -10,-1.66 l 2,-6.55 c 1.71,1.11 5.12,1.85 7.93,1.85 2.81,0 6.87,-0.51 6.87,-3.83 0,-5.17 -12.5,-3.23 -12.5,-12.32 0,-8.3 7.29,-10.8 14.35,-10.8 4,0 7.7,0.42 9.87,1.43 z"
       id="path3" />
  </g>
  <rect
     style="fill:#ffffff"
     id="rect3"
     width="261.22882"
     height="150"
     x="370.55084"
     y="0.63559341" />
  <text
     xml:space="preserve"
     style="font-size:133.333px;fill:#ffffff"
     x="366.9032"
     y="116.05682"
     id="text3"><tspan
       sodipodi:role="line"
       id="tspan3"
       x="366.9032"
       y="116.05682"
       style="font-style:italic;font-variant:normal;font-weight:bold;font-stretch:normal;font-size:133.333px;font-family:Arial;-inkscape-font-specification:Arial;fill:#000000"> web chat</tspan></text>
</svg>
